<svg xmlns="http://www.w3.org/2000/svg" height="683" viewBox="0 0 512 512" width="683"><path d="M347.652 406.414c-34.004 58.578-97.4 97.98-170.023 97.98S41.61 464.992 7.605 406.414c24.88-42.848 65.484-75.434 113.922-89.844 17.777-5.293 36.61-8.133 56.102-8.133 62.363 0 117.918 29.055 153.9 74.36 5.922 7.453 11.31 15.344 16.113 23.617zm0 0" fill="#adc165"/><path d="M331.54 382.797c-55.477 16.48-117.645 8.395-168.727-27.383-15.973-11.187-29.766-24.31-41.285-38.844 17.777-5.293 36.61-8.133 56.102-8.133 62.363 0 117.918 29.055 153.9 74.36zm0 0" fill="#99aa52"/><path d="M370.32 335.344c-1.055 9.938-2.883 19.805-5.457 29.52-65.473 17.375-138.16.398-189.504-50.95-51.348-51.336-68.324-124.03-50.953-189.504 49.594-13.156 103.332-6.613 148.79 19.652 14.55 8.406 28.262 18.844 40.72 31.297 43.727 43.73 62.53 102.938 56.406 159.984zm0 0" fill="#ffc73b"/><path d="M370.32 335.344c-49.676-28.71-86.387-78.832-95.89-139.926-2.707-17.402-3.043-34.633-1.234-51.355 14.55 8.406 28.262 18.844 40.72 31.297 43.727 43.73 62.53 102.938 56.406 159.984zm0 0" fill="#efb025"/><path d="M308.438 177.633c0 72.613 39.398 136.016 97.977 170.023 58.582-34.008 97.977-97.4 97.977-170.023S464.996 41.613 406.414 7.605c-58.578 34.008-97.977 97.414-97.977 170.027zm0 0" fill="#ff903e"/><path d="M483.926 74.285C466.105 44 440.62 18.668 410.234 1.027c-2.363-1.37-5.277-1.37-7.637 0-30.39 17.64-55.87 42.973-73.695 73.258-14.484 24.61-23.555 52.047-26.754 80.398-23.242-18.53-50.363-31.855-79.27-38.8-32.95-7.918-67.676-7.512-100.422 1.18-2.637.7-4.7 2.762-5.398 5.398a205.18 205.18 0 0 0-.305 103.91c7.16 27.645 20.148 53.46 37.938 75.773-29.543 3.328-58.145 13.078-83.5 28.61-3.582 2.195-4.707 6.875-2.512 10.457 1.434 2.344 3.93 3.637 6.492 3.637 1.355 0 2.727-.363 3.965-1.12 26.52-16.246 56.883-25.66 88.008-27.367l2.836 2.938c25.742 25.742 57.875 44.145 92.926 53.227 16.813 4.36 34.1 6.535 51.37 6.535l4.1-.066c5.602 6.258 10.793 12.883 15.512 19.816H89.78a7.61 7.61 0 0 0-7.605 7.605 7.61 7.61 0 0 0 7.605 7.605h244.074c-15.723 23.102-36.453 42.586-60.598 56.797-28.867 16.988-61.934 25.97-95.625 25.97s-66.766-8.98-95.633-25.97C55.242 455.07 32.66 432.86 16.46 406.4c10.344-16.902 23.223-32.016 38.332-44.965 3.188-2.734 3.56-7.535.824-10.723s-7.535-3.56-10.727-.824c-17.535 15.03-32.293 32.762-43.863 52.695-1.37 2.363-1.37 5.277 0 7.637C18.668 440.62 44 466.105 74.28 483.926 105.488 502.293 141.227 512 177.633 512s72.137-9.707 103.344-28.074c29.012-17.074 53.457-41.19 70.97-69.906h54.47c2.02 0 3.953-.8 5.38-2.227s2.23-3.36 2.23-5.38v-54.437c16.766-10.223 31.95-22.78 45.184-37.383a7.61 7.61 0 0 0-.531-10.746c-3.113-2.82-7.922-2.582-10.742.53a189.79 189.79 0 0 1-33.91 29.477V89.78a7.61 7.61 0 0 0-7.609-7.605 7.61 7.61 0 0 0-7.605 7.605v244.078c-23.102-15.723-42.586-36.45-56.793-60.598-16.992-28.867-25.973-61.938-25.973-95.63s8.98-66.762 25.973-95.633c15.746-26.754 37.95-49.336 64.398-65.54 26.45 16.203 48.656 38.78 64.402 65.54 16.988 28.87 25.97 61.938 25.97 95.633 0 37.31-10.863 73.387-31.414 104.332a7.61 7.61 0 0 0 2.129 10.547c3.496 2.324 8.22 1.37 10.543-2.13 22.21-33.445 33.953-72.437 33.953-112.75.004-36.406-9.707-72.14-28.07-103.348zM337.22 377.746a204.41 204.41 0 0 0 25.309-4.461l25.527 25.523H351.96c-4.457-7.312-9.387-14.348-14.742-21.062zm61.6 10.31l-25.516-25.52a205.51 205.51 0 0 0 4.465-25.32 204.43 204.43 0 0 0 21.051 14.738zm-69.902-107.078c9.5 16.148 21.2 30.87 34.64 43.785a189.7 189.7 0 0 1-3.043 24.984L187.898 177.145a7.6 7.6 0 1 0-10.754 10.754l172.6 172.594c-27.453 5.215-55.887 4.336-83.008-2.69-32.43-8.402-62.16-25.437-85.984-49.262s-40.86-53.56-49.262-85.984c-7.785-30.05-8.05-61.723-.81-91.88 29.04-6.973 59.594-6.984 88.656 0 30.234 7.266 58.36 22.07 81.574 42.863l-.07 4.094c0 36.402 9.707 72.14 28.074 103.344zm0 0"/></svg>